<svg xmlns="http://www.w3.org/2000/svg" xmlns:xlink="http://www.w3.org/1999/xlink" width="1080" zoomAndPan="magnify" viewBox="0 0 810 809.999993" height="1080" preserveAspectRatio="xMidYMid meet" version="1.0"><defs><clipPath id="582b600441"><path d="M 276.210938 431 L 533.460938 431 L 533.460938 545 L 276.210938 545 Z M 276.210938 431 " clip-rule="nonzero"/></clipPath></defs><path fill="#f2f2f2" d="M 517.058594 310.746094 L 517.058594 557.15625 C 517.058594 562.546875 512.648438 566.960938 507.269531 566.960938 L 302.402344 566.960938 C 297.019531 566.960938 292.613281 562.546875 292.613281 557.15625 L 292.613281 252.84375 C 292.613281 247.453125 297.019531 243.039062 302.402344 243.039062 L 448.660156 243.039062 Z M 517.058594 310.746094 " fill-opacity="1" fill-rule="nonzero"/><path fill="#cccccc" d="M 517.058594 310.746094 L 458.515625 310.746094 C 453.132812 310.746094 448.726562 306.332031 448.726562 300.941406 L 448.726562 243.039062 " fill-opacity="0.73" fill-rule="nonzero"/><g clip-path="url(#582b600441)"><path fill="#006837" d="M 520.492188 544.109375 L 289.175781 544.109375 C 282.042969 544.109375 276.210938 538.269531 276.210938 531.128906 L 276.210938 444.011719 C 276.210938 436.871094 282.042969 431.03125 289.175781 431.03125 L 520.492188 431.03125 C 527.625 431.03125 533.460938 436.871094 533.460938 444.011719 L 533.460938 531.128906 C 533.460938 538.269531 527.691406 544.109375 520.492188 544.109375 Z M 520.492188 544.109375 " fill-opacity="1" fill-rule="nonzero"/></g><path fill="#666666" d="M 481.140625 399.9375 L 328.984375 399.9375 C 325.742188 399.9375 323.148438 397.339844 323.148438 394.09375 C 323.148438 390.847656 325.742188 388.253906 328.984375 388.253906 L 481.140625 388.253906 C 484.382812 388.253906 486.976562 390.847656 486.976562 394.09375 C 486.976562 397.339844 484.382812 399.9375 481.140625 399.9375 Z M 481.140625 399.9375 " fill-opacity="0.77" fill-rule="nonzero"/><path fill="#666666" d="M 481.140625 371.113281 L 328.984375 371.113281 C 325.742188 371.113281 323.148438 368.519531 323.148438 365.273438 C 323.148438 362.027344 325.742188 359.429688 328.984375 359.429688 L 481.140625 359.429688 C 484.382812 359.429688 486.976562 362.027344 486.976562 365.273438 C 486.976562 368.519531 484.382812 371.113281 481.140625 371.113281 Z M 481.140625 371.113281 " fill-opacity="0.77" fill-rule="nonzero"/><path fill="#666666" d="M 481.140625 342.359375 L 328.984375 342.359375 C 325.742188 342.359375 323.148438 339.761719 323.148438 336.515625 C 323.148438 333.269531 325.742188 330.671875 328.984375 330.671875 L 481.140625 330.671875 C 484.382812 330.671875 486.976562 333.269531 486.976562 336.515625 C 486.976562 339.761719 484.382812 342.359375 481.140625 342.359375 Z M 481.140625 342.359375 " fill-opacity="0.77" fill-rule="nonzero"/><path fill="#ffffff" d="M 341.691406 497.890625 L 329.5 519.054688 L 309.792969 519.054688 L 332.222656 487.441406 L 311.347656 456.347656 L 330.410156 456.347656 L 342.207031 477.25 L 354.914062 456.347656 L 373.714844 456.347656 L 351.867188 487.179688 L 373.910156 519.054688 L 354.851562 519.054688 Z M 341.691406 497.890625 " fill-opacity="1" fill-rule="nonzero"/><path fill="#ffffff" d="M 433.492188 519.054688 L 385.449219 519.054688 L 385.449219 456.347656 L 401.789062 456.347656 L 401.789062 505.226562 L 433.492188 505.226562 Z M 433.492188 519.054688 " fill-opacity="1" fill-rule="nonzero"/><path fill="#ffffff" d="M 493.71875 475.691406 L 477.382812 475.691406 C 476.667969 470.5 473.945312 467.058594 468.5625 467.058594 C 464.867188 467.058594 462.273438 468.875 462.273438 472.707031 C 462.273438 476.730469 465.191406 479.132812 475.5 481.597656 C 489.308594 484.84375 494.949219 491.789062 494.949219 501.398438 C 494.949219 513.925781 482.957031 520.285156 470.378906 520.285156 C 454.496094 520.285156 443.796875 513.925781 442.761719 499.839844 L 459.097656 499.839844 C 460.199219 505.746094 465 508.277344 469.925781 508.277344 C 474.464844 508.277344 477.898438 505.941406 477.898438 502.4375 C 477.898438 499.191406 475.566406 496.332031 467.851562 494.453125 C 453.589844 490.882812 445.226562 486.46875 445.226562 473.9375 C 445.226562 461.863281 456.503906 455.046875 468.886719 455.046875 C 485.484375 455.113281 492.355469 464.070312 493.71875 475.691406 Z M 493.71875 475.691406 " fill-opacity="1" fill-rule="nonzero"/></svg>