<svg xmlns="http://www.w3.org/2000/svg" xmlns:xlink="http://www.w3.org/1999/xlink" width="1080" zoomAndPan="magnify" viewBox="0 0 810 809.999993" height="1080" preserveAspectRatio="xMidYMid meet" version="1.0"><defs><clipPath id="2c15fc5b01"><path d="M 243 243 L 567 243 L 567 567 L 243 567 Z M 243 243 " clip-rule="nonzero"/></clipPath></defs><g clip-path="url(#2c15fc5b01)"><path fill="#f03c2e" d="M 560.882812 390.570312 L 419.429688 249.117188 C 418.945312 248.632812 418.4375 248.171875 417.910156 247.738281 C 417.382812 247.304688 416.835938 246.898438 416.265625 246.519531 C 415.699219 246.140625 415.113281 245.789062 414.511719 245.46875 C 413.910156 245.144531 413.292969 244.851562 412.660156 244.589844 C 412.027344 244.328125 411.386719 244.101562 410.734375 243.902344 C 410.078125 243.703125 409.417969 243.539062 408.746094 243.402344 C 408.074219 243.269531 407.402344 243.171875 406.722656 243.101562 C 406.039062 243.035156 405.359375 243.003906 404.675781 243.003906 C 403.992188 243.003906 403.3125 243.035156 402.632812 243.101562 C 401.949219 243.171875 401.277344 243.269531 400.605469 243.402344 C 399.933594 243.539062 399.273438 243.703125 398.621094 243.902344 C 397.964844 244.101562 397.324219 244.328125 396.691406 244.589844 C 396.058594 244.851562 395.445312 245.144531 394.839844 245.46875 C 394.238281 245.789062 393.652344 246.140625 393.085938 246.519531 C 392.515625 246.898438 391.96875 247.304688 391.441406 247.738281 C 390.914062 248.171875 390.40625 248.632812 389.925781 249.117188 L 360.5625 278.476562 L 397.820312 315.738281 C 406.488281 312.699219 416.410156 314.777344 423.316406 321.679688 C 424.132812 322.5 424.890625 323.371094 425.585938 324.296875 C 426.28125 325.222656 426.910156 326.191406 427.46875 327.207031 C 428.03125 328.21875 428.515625 329.265625 428.929688 330.347656 C 429.34375 331.425781 429.679688 332.53125 429.9375 333.660156 C 430.195312 334.789062 430.375 335.929688 430.476562 337.082031 C 430.574219 338.234375 430.59375 339.390625 430.53125 340.546875 C 430.46875 341.703125 430.324219 342.847656 430.101562 343.984375 C 429.878906 345.121094 429.578125 346.234375 429.199219 347.328125 L 465.113281 383.242188 C 473.800781 380.246094 483.824219 382.179688 490.757812 389.132812 C 491.335938 389.710938 491.878906 390.3125 492.394531 390.941406 C 492.914062 391.570312 493.398438 392.222656 493.847656 392.898438 C 494.300781 393.574219 494.71875 394.269531 495.101562 394.988281 C 495.488281 395.707031 495.835938 396.441406 496.144531 397.191406 C 496.457031 397.941406 496.730469 398.707031 496.96875 399.488281 C 497.203125 400.265625 497.402344 401.054688 497.558594 401.851562 C 497.71875 402.648438 497.839844 403.453125 497.917969 404.261719 C 498 405.070312 498.039062 405.882812 498.039062 406.695312 C 498.039062 407.511719 498 408.320312 497.917969 409.132812 C 497.839844 409.941406 497.71875 410.746094 497.5625 411.542969 C 497.402344 412.339844 497.203125 413.128906 496.96875 413.90625 C 496.734375 414.6875 496.457031 415.453125 496.148438 416.203125 C 495.835938 416.953125 495.488281 417.6875 495.105469 418.40625 C 494.722656 419.125 494.304688 419.820312 493.851562 420.496094 C 493.398438 421.171875 492.914062 421.828125 492.398438 422.457031 C 491.882812 423.085938 491.335938 423.6875 490.761719 424.261719 C 490.1875 424.835938 489.585938 425.382812 488.957031 425.898438 C 488.328125 426.414062 487.675781 426.898438 486.996094 427.351562 C 486.320312 427.800781 485.625 428.21875 484.90625 428.601562 C 484.1875 428.984375 483.453125 429.332031 482.703125 429.644531 C 481.949219 429.957031 481.1875 430.230469 480.40625 430.464844 C 479.628906 430.699219 478.839844 430.898438 478.042969 431.054688 C 477.246094 431.214844 476.441406 431.332031 475.628906 431.414062 C 474.820312 431.492188 474.007812 431.53125 473.195312 431.53125 C 472.382812 431.53125 471.570312 431.492188 470.761719 431.410156 C 469.953125 431.332031 469.148438 431.210938 468.351562 431.050781 C 467.550781 430.894531 466.765625 430.695312 465.984375 430.460938 C 465.207031 430.222656 464.441406 429.949219 463.691406 429.636719 C 462.9375 429.324219 462.203125 428.976562 461.488281 428.59375 C 460.769531 428.210938 460.074219 427.792969 459.398438 427.339844 C 458.722656 426.886719 458.070312 426.402344 457.441406 425.886719 C 456.8125 425.371094 456.210938 424.824219 455.636719 424.246094 C 448.34375 416.957031 446.542969 406.226562 450.226562 397.246094 L 416.734375 363.75 L 416.734375 451.890625 C 419.183594 453.101562 421.375 454.664062 423.316406 456.585938 C 423.890625 457.160156 424.4375 457.761719 424.953125 458.390625 C 425.46875 459.019531 425.953125 459.671875 426.402344 460.347656 C 426.855469 461.027344 427.273438 461.722656 427.65625 462.4375 C 428.039062 463.15625 428.386719 463.890625 428.699219 464.640625 C 429.007812 465.394531 429.28125 466.15625 429.519531 466.9375 C 429.753906 467.714844 429.953125 468.503906 430.109375 469.300781 C 430.269531 470.097656 430.390625 470.902344 430.46875 471.710938 C 430.546875 472.519531 430.589844 473.332031 430.589844 474.144531 C 430.589844 474.957031 430.546875 475.769531 430.46875 476.578125 C 430.390625 477.386719 430.269531 478.191406 430.109375 478.988281 C 429.953125 479.785156 429.753906 480.574219 429.519531 481.351562 C 429.28125 482.128906 429.007812 482.894531 428.699219 483.644531 C 428.386719 484.398438 428.039062 485.128906 427.65625 485.847656 C 427.273438 486.566406 426.855469 487.261719 426.402344 487.9375 C 425.953125 488.613281 425.46875 489.265625 424.953125 489.894531 C 424.4375 490.523438 423.890625 491.125 423.316406 491.699219 C 422.742188 492.273438 422.140625 492.820312 421.511719 493.335938 C 420.882812 493.851562 420.230469 494.335938 419.554688 494.789062 C 418.878906 495.238281 418.179688 495.65625 417.464844 496.039062 C 416.746094 496.425781 416.011719 496.769531 415.261719 497.082031 C 414.507812 497.394531 413.746094 497.667969 412.96875 497.902344 C 412.1875 498.140625 411.402344 498.335938 410.601562 498.496094 C 409.804688 498.652344 409.003906 498.773438 408.191406 498.851562 C 407.382812 498.933594 406.574219 498.972656 405.757812 498.972656 C 404.945312 498.972656 404.136719 498.933594 403.324219 498.851562 C 402.515625 498.773438 401.714844 498.652344 400.914062 498.496094 C 400.117188 498.335938 399.328125 498.140625 398.550781 497.902344 C 397.773438 497.667969 397.007812 497.394531 396.257812 497.082031 C 395.507812 496.769531 394.773438 496.425781 394.054688 496.039062 C 393.339844 495.65625 392.640625 495.238281 391.964844 494.789062 C 391.289062 494.335938 390.636719 493.851562 390.007812 493.335938 C 389.378906 492.820312 388.777344 492.273438 388.203125 491.699219 C 387.625 491.125 387.082031 490.523438 386.5625 489.894531 C 386.046875 489.265625 385.5625 488.617188 385.109375 487.9375 C 384.660156 487.261719 384.242188 486.566406 383.855469 485.851562 C 383.472656 485.132812 383.125 484.398438 382.8125 483.648438 C 382.5 482.894531 382.226562 482.132812 381.992188 481.351562 C 381.753906 480.574219 381.558594 479.785156 381.398438 478.988281 C 381.238281 478.191406 381.121094 477.386719 381.039062 476.578125 C 380.960938 475.769531 380.921875 474.957031 380.921875 474.144531 C 380.921875 473.332031 380.960938 472.519531 381.039062 471.710938 C 381.121094 470.898438 381.238281 470.097656 381.398438 469.296875 C 381.558594 468.5 381.753906 467.710938 381.992188 466.933594 C 382.226562 466.15625 382.5 465.390625 382.8125 464.640625 C 383.125 463.890625 383.472656 463.15625 383.855469 462.4375 C 384.242188 461.71875 384.660156 461.023438 385.109375 460.347656 C 385.5625 459.671875 386.046875 459.019531 386.5625 458.390625 C 387.082031 457.761719 387.625 457.160156 388.203125 456.585938 C 390.601562 454.199219 393.265625 452.386719 396.332031 451.171875 L 396.332031 362.210938 C 393.375 360.996094 390.601562 359.203125 388.203125 356.792969 C 387.335938 355.929688 386.539062 355.003906 385.808594 354.019531 C 385.078125 353.035156 384.425781 352.003906 383.847656 350.921875 C 383.269531 349.84375 382.777344 348.726562 382.367188 347.570312 C 381.953125 346.417969 381.628906 345.238281 381.394531 344.035156 C 381.15625 342.835938 381.011719 341.621094 380.953125 340.398438 C 380.894531 339.175781 380.929688 337.953125 381.054688 336.734375 C 381.175781 335.515625 381.390625 334.3125 381.691406 333.125 C 381.996094 331.9375 382.382812 330.78125 382.855469 329.648438 L 346.101562 292.917969 L 249.105469 389.8125 C 248.621094 390.296875 248.164062 390.800781 247.730469 391.328125 C 247.296875 391.859375 246.886719 392.40625 246.507812 392.972656 C 246.128906 393.542969 245.777344 394.128906 245.453125 394.730469 C 245.132812 395.332031 244.839844 395.949219 244.578125 396.582031 C 244.316406 397.214844 244.085938 397.855469 243.886719 398.511719 C 243.6875 399.164062 243.523438 399.828125 243.390625 400.496094 C 243.253906 401.167969 243.15625 401.84375 243.089844 402.523438 C 243.019531 403.203125 242.988281 403.886719 242.988281 404.570312 C 242.988281 405.253906 243.019531 405.933594 243.089844 406.617188 C 243.15625 407.296875 243.253906 407.972656 243.390625 408.640625 C 243.523438 409.3125 243.6875 409.972656 243.886719 410.628906 C 244.085938 411.28125 244.316406 411.925781 244.578125 412.558594 C 244.839844 413.1875 245.132812 413.804688 245.453125 414.410156 C 245.777344 415.011719 246.128906 415.597656 246.507812 416.164062 C 246.886719 416.734375 247.296875 417.28125 247.730469 417.808594 C 248.164062 418.339844 248.621094 418.84375 249.105469 419.328125 L 390.570312 560.773438 C 391.054688 561.257812 391.558594 561.714844 392.089844 562.148438 C 392.617188 562.582031 393.164062 562.988281 393.734375 563.367188 C 394.300781 563.75 394.886719 564.097656 395.488281 564.421875 C 396.089844 564.742188 396.707031 565.035156 397.339844 565.296875 C 397.972656 565.558594 398.613281 565.789062 399.265625 565.988281 C 399.921875 566.183594 400.582031 566.351562 401.253906 566.484375 C 401.921875 566.617188 402.597656 566.71875 403.277344 566.785156 C 403.957031 566.851562 404.640625 566.886719 405.324219 566.886719 C 406.007812 566.886719 406.6875 566.851562 407.367188 566.785156 C 408.050781 566.71875 408.722656 566.617188 409.394531 566.484375 C 410.066406 566.351562 410.726562 566.183594 411.378906 565.988281 C 412.035156 565.789062 412.675781 565.558594 413.308594 565.296875 C 413.941406 565.035156 414.554688 564.742188 415.160156 564.421875 C 415.761719 564.097656 416.347656 563.75 416.914062 563.367188 C 417.484375 562.988281 418.03125 562.582031 418.558594 562.148438 C 419.085938 561.714844 419.59375 561.257812 420.074219 560.773438 L 560.882812 420.1875 C 561.367188 419.703125 561.828125 419.199219 562.261719 418.671875 C 562.695312 418.140625 563.101562 417.59375 563.480469 417.027344 C 563.863281 416.457031 564.214844 415.871094 564.535156 415.269531 C 564.859375 414.667969 565.148438 414.050781 565.414062 413.417969 C 565.675781 412.785156 565.902344 412.144531 566.101562 411.488281 C 566.300781 410.835938 566.46875 410.171875 566.601562 409.503906 C 566.734375 408.832031 566.835938 408.15625 566.902344 407.476562 C 566.96875 406.796875 567.003906 406.113281 567.003906 405.429688 C 567.003906 404.746094 566.96875 404.066406 566.902344 403.382812 C 566.835938 402.703125 566.734375 402.027344 566.601562 401.359375 C 566.46875 400.6875 566.300781 400.027344 566.101562 399.371094 C 565.902344 398.71875 565.675781 398.074219 565.414062 397.441406 C 565.148438 396.8125 564.859375 396.195312 564.535156 395.589844 C 564.214844 394.988281 563.863281 394.402344 563.480469 393.835938 C 563.101562 393.265625 562.695312 392.71875 562.261719 392.191406 C 561.828125 391.660156 561.367188 391.15625 560.882812 390.671875 " fill-opacity="1" fill-rule="nonzero"/></g></svg>