<svg xmlns="http://www.w3.org/2000/svg" xmlns:xlink="http://www.w3.org/1999/xlink" width="1080" zoomAndPan="magnify" viewBox="0 0 810 809.999993" height="1080" preserveAspectRatio="xMidYMid meet" version="1.0"><defs><clipPath id="eb7847bc9e"><path d="M 290.128906 306 L 519.628906 306 L 519.628906 567 L 290.128906 567 Z M 290.128906 306 " clip-rule="nonzero"/></clipPath></defs><g clip-path="url(#eb7847bc9e)"><path fill="#e44d26" d="M 519.566406 306.671875 L 498.679688 540.929688 L 404.777344 566.988281 L 311.136719 540.964844 L 290.273438 306.671875 L 519.5625 306.667969 L 519.574219 306.667969 Z M 519.566406 306.671875 " fill-opacity="1" fill-rule="nonzero"/></g><path fill="#f16529" d="M 404.921875 547.070312 L 480.800781 526.015625 L 498.652344 325.832031 L 404.921875 325.828125 Z M 404.921875 547.070312 " fill-opacity="1" fill-rule="nonzero"/><path fill="#ebebeb" d="M 364.3125 383.296875 L 404.921875 383.296875 L 404.921875 354.558594 L 332.941406 354.558594 L 333.628906 362.269531 L 340.683594 441.457031 L 404.921875 441.457031 L 404.921875 412.730469 L 366.9375 412.730469 Z M 364.3125 383.296875 " fill-opacity="1" fill-rule="nonzero"/><path fill="#ebebeb" d="M 370.78125 455.828125 L 341.964844 455.828125 L 345.988281 500.949219 L 404.789062 517.289062 L 404.921875 517.253906 L 404.921875 487.355469 L 404.796875 487.390625 L 372.828125 478.742188 Z M 370.78125 455.828125 " fill-opacity="1" fill-rule="nonzero"/><path fill="#000000" d="M 311.605469 243 L 326.195312 243 L 326.195312 257.425781 L 339.539062 257.425781 L 339.539062 243 L 354.128906 243 L 354.128906 286.691406 L 339.539062 286.691406 L 339.539062 272.058594 L 326.195312 272.058594 L 326.195312 286.691406 L 311.605469 286.691406 Z M 311.605469 243 " fill-opacity="1" fill-rule="nonzero"/><path fill="#000000" d="M 373.3125 257.488281 L 360.46875 257.488281 L 360.46875 243 L 400.75 243 L 400.75 257.488281 L 387.898438 257.488281 L 387.898438 286.691406 L 373.3125 286.691406 Z M 373.3125 257.488281 " fill-opacity="1" fill-rule="nonzero"/><path fill="#000000" d="M 407.140625 243 L 422.351562 243 L 431.707031 258.351562 L 441.054688 243 L 456.273438 243 L 456.273438 286.691406 L 441.746094 286.691406 L 441.746094 265.035156 L 431.707031 280.570312 L 431.457031 280.570312 L 421.414062 265.035156 L 421.414062 286.691406 L 407.140625 286.691406 Z M 407.140625 243 " fill-opacity="1" fill-rule="nonzero"/><path fill="#000000" d="M 463.535156 243 L 478.125 243 L 478.125 272.25 L 498.644531 272.25 L 498.644531 286.691406 L 463.535156 286.691406 Z M 463.535156 243 " fill-opacity="1" fill-rule="nonzero"/><path fill="#ffffff" d="M 404.824219 441.457031 L 440.175781 441.457031 L 436.839844 478.726562 L 404.824219 487.382812 L 404.824219 517.269531 L 463.667969 500.949219 L 464.101562 496.089844 L 470.851562 420.441406 L 471.550781 412.730469 L 404.824219 412.730469 Z M 404.824219 441.457031 " fill-opacity="1" fill-rule="nonzero"/><path fill="#ffffff" d="M 404.824219 383.226562 L 404.824219 383.296875 L 474.160156 383.296875 L 474.734375 376.835938 L 476.046875 362.269531 L 476.730469 354.558594 L 404.824219 354.558594 Z M 404.824219 383.226562 " fill-opacity="1" fill-rule="nonzero"/></svg>