<svg xmlns="http://www.w3.org/2000/svg" xmlns:xlink="http://www.w3.org/1999/xlink" width="1080" zoomAndPan="magnify" viewBox="0 0 810 809.999993" height="1080" preserveAspectRatio="xMidYMid meet" version="1.0"><path fill="#3498db" d="M 283.488281 559.757812 C 283.488281 552.585938 283.488281 365.414062 283.488281 250.171875 C 283.488281 243 290.863281 243 290.863281 243 L 458.777344 243 L 526.195312 310.5 C 526.195312 310.5 526.195312 552.585938 526.195312 559.828125 C 526.195312 567 518.820312 567 518.820312 567 L 290.863281 567 C 290.863281 567 283.488281 567 283.488281 559.757812 Z M 283.488281 559.757812 " fill-opacity="1" fill-rule="evenodd"/><path fill="#ecf0f1" d="M 296.972656 256.5 L 458.777344 256.5 L 512.710938 310.5 L 512.710938 553.5 L 296.972656 553.5 Z M 296.972656 256.5 " fill-opacity="1" fill-rule="evenodd"/><path fill="#2980b9" d="M 458.777344 243 L 458.777344 303.75 C 458.777344 310.5 465.519531 310.5 465.519531 310.5 L 526.195312 310.5 Z M 458.777344 243 " fill-opacity="1" fill-rule="evenodd"/><path fill="#2980b9" d="M 322.113281 378.703125 L 367.199219 378.703125 C 382.929688 378.703125 394.167969 381.304688 400.910156 386.4375 C 407.582031 391.570312 410.953125 400.21875 410.953125 412.3125 C 410.953125 426.023438 406.457031 436.640625 397.46875 444.234375 C 388.480469 451.898438 375.910156 455.695312 359.6875 455.695312 L 348.519531 455.695312 L 348.519531 505.265625 L 322.113281 505.265625 Z M 348.519531 438.328125 L 353.714844 438.328125 C 362.917969 438.328125 370.21875 436.21875 375.558594 432 C 380.894531 427.851562 383.5625 422.15625 383.5625 414.984375 C 383.5625 402.398438 375.347656 396.070312 358.984375 396.070312 L 348.519531 396.070312 Z M 416.851562 502.3125 L 416.851562 483.75 C 429.632812 488.953125 440.589844 491.625 449.71875 491.625 C 460.324219 491.625 465.589844 488.039062 465.589844 481.007812 C 465.589844 476.4375 461.234375 472.429688 452.457031 469.054688 L 443.75 465.609375 C 434.269531 461.8125 427.457031 457.804688 423.382812 453.445312 C 419.308594 449.15625 417.273438 443.742188 417.273438 437.34375 C 417.273438 428.484375 420.714844 421.59375 427.667969 416.601562 C 434.617188 411.679688 444.308594 409.21875 456.742188 409.21875 C 464.535156 409.21875 473.875 410.34375 484.621094 412.59375 L 484.621094 430.382812 C 474.296875 426.796875 465.660156 425.039062 458.847656 425.039062 C 448.171875 425.039062 442.765625 428.34375 442.765625 434.8125 C 442.765625 439.101562 446.769531 442.6875 454.632812 445.640625 L 462.148438 448.523438 C 473.453125 452.671875 481.25 456.890625 485.675781 461.179688 C 490.027344 465.46875 492.207031 470.953125 492.207031 477.632812 C 492.207031 486.492188 488.484375 493.664062 481.039062 499.148438 C 473.523438 504.703125 463.761719 507.445312 451.753906 507.445312 C 440.238281 507.445312 428.578125 505.6875 416.851562 502.3125 C 416.851562 502.3125 428.578125 505.6875 416.851562 502.3125 Z M 416.851562 502.3125 " fill-opacity="1" fill-rule="evenodd"/></svg>